<svg width="48" height="48" fill="none" xmlns="http://www.w3.org/2000/svg"><path d="M21 28.495c0 3-1.5 4.5-3 6l-.238.236c-1.434 1.425-2.94 2.92-2.762 5.762-.454-.908-.496-2.09-.541-3.383-.105-2.974-.23-6.523-5.459-8.614 0 0 1.5-3 0-8.999-1.5-5.999-9-8.998-9-8.998s4.5 0 6-3S7.5 1.5 7.5 1.5 21 22.497 21 28.495z" fill="#F5F5F5"/><path d="M40.5 1.5s0 3 1.5 5.999c1.5 3 6 3.007 6 3.007s-7.5 3-9 8.998c-1.5 6 0 8.999 0 8.999-5.23 2.091-5.354 5.64-5.459 8.615-.045 1.292-.087 2.475-.541 3.383.178-2.842-1.328-4.338-2.763-5.763L30 34.502c-.517-.51-1.027-1.027-1.485-1.605-1.536 2.157-3.95 3.7-5.68 4.806-.82.524-1.488.95-1.835 1.298-1.5 1.5-1.5 4.5 3 7.499 0 0-6-1.5-6-5.999 0-2.088 1.292-3.53 2.677-5.076 1.6-1.784 3.323-3.707 3.323-6.922 0-3.514-1.544-5.999-2.823-8.058-.905-1.455-1.677-2.698-1.677-3.94 0-1.395.652-2.145 1.35-2.542l-1.35-2.707 4.5 2.25c.09.194.188.374.285.54.383.667.75 1.154 1.095 1.507.922.952 1.62.952 1.62.952l-.75 1.5-4.65-1.625c0 .96.508 1.48 1.719 2.57a51.926 51.926 0 012.181 2.054c3 3 4.5 5.594 4.5 7.499.517-1.222.45-2.617.277-3.914-.18-1.2-.487-2.362-.862-3.51C33.3 12.696 40.5 1.5 40.5 1.5z" fill="#F5F5F5"/></svg>