<svg width="20" height="20" fill="none" xmlns="http://www.w3.org/2000/svg"><g id="Telegram"><path id="telegram" d="M2.812 9.28c4.474-1.95 7.458-3.235 8.95-3.856 4.262-1.772 5.148-2.08 5.725-2.09.127-.003.411.029.595.178a.647.647 0 01.218.416c.02.12.046.391.026.604-.231 2.426-1.23 8.315-1.739 11.033-.215 1.15-.639 1.536-1.049 1.574-.89.082-1.568-.59-2.43-1.155-1.351-.885-2.115-1.437-3.426-2.3-1.515-1-.533-1.548.33-2.445.227-.235 4.154-3.806 4.23-4.13.01-.04.018-.192-.072-.272-.09-.08-.222-.052-.318-.03-.135.03-2.293 1.457-6.473 4.278-.612.42-1.167.626-1.664.615-.548-.012-1.602-.31-2.386-.564-.96-.313-1.725-.478-1.658-1.009.034-.276.415-.559 1.141-.847z" fill="#fff"/></g></svg>