<svg width="20" height="20" fill="none" xmlns="http://www.w3.org/2000/svg"><g id="Whatsapp"><path id="whatsapp" fill-rule="evenodd" clip-rule="evenodd" d="M15.833 4.062C14.271 2.5 12.187 1.667 10 1.667c-4.583 0-8.333 3.75-8.333 8.333a8.35 8.35 0 001.146 4.167l-1.146 4.166 4.375-1.145c1.25.625 2.604 1.041 3.958 1.041 4.583 0 8.333-3.75 8.333-8.333 0-2.188-.937-4.271-2.5-5.834zm-2.083 7.605c-.208-.104-1.25-.625-1.458-.625-.209-.104-.313-.104-.417.104-.104.208-.52.625-.625.833-.104.104-.208.104-.417.104-.208-.104-.833-.312-1.666-1.041-.625-.521-1.042-1.25-1.146-1.459-.104-.208 0-.312.104-.416l.313-.313c.104-.104.104-.208.208-.312.104-.105 0-.209 0-.313 0-.104-.417-1.146-.625-1.562-.104-.313-.313-.313-.417-.313h-.416c-.105 0-.313 0-.521.208-.209.209-.73.73-.73 1.771 0 1.042.73 1.98.834 2.188.104.104 1.458 2.291 3.542 3.125 1.77.729 2.083.52 2.5.52.416 0 1.25-.52 1.354-.937.208-.52.208-.937.104-.937-.104-.521-.313-.521-.521-.625z" fill="#fff"/></g></svg>